<svg width="19" height="20" viewBox="0 0 19 20" fill="none" xmlns="http://www.w3.org/2000/svg">
<path d="M19 9.97478C19 9.2874 18.9383 8.62645 18.8237 7.99194H9.69385V11.7417H14.9109C14.6862 12.9534 14.0032 13.9801 12.9765 14.6675V17.0998H16.1094C17.9425 15.4122 19 12.927 19 9.97478Z" fill="#4285F4"/>
<path d="M9.69393 19.4485C12.3113 19.4485 14.5056 18.5804 16.1095 17.0999L12.9766 14.6676C12.1086 15.2493 10.9982 15.593 9.69393 15.593C7.16911 15.593 5.03206 13.8877 4.26976 11.5964H1.03113V14.108C2.62621 17.2762 5.9045 19.4485 9.69393 19.4485Z" fill="#34A853"/>
<path d="M4.26971 11.5969C4.07584 11.0152 3.96568 10.394 3.96568 9.75504C3.96568 9.11613 4.07584 8.49484 4.26971 7.91321V5.40161H1.03108C0.352505 6.75246 -0.000598047 8.24334 7.60341e-07 9.75504C7.60341e-07 11.3193 0.374537 12.7998 1.03108 14.1085L4.26971 11.5969Z" fill="#FBBC05"/>
<path d="M9.69393 3.91655C11.1172 3.91655 12.395 4.40565 13.3996 5.36623L16.18 2.58585C14.5012 1.02161 12.3069 0.0610352 9.69393 0.0610352C5.9045 0.0610352 2.62621 2.23335 1.03113 5.40148L4.26976 7.91308C5.03206 5.6218 7.16911 3.91655 9.69393 3.91655Z" fill="#EA4335"/>
</svg>
